# xmcd
#
# Track frame offsets:
#	150
#	17830
#	35479
#	49691
#	74827
#	105625
#	147447
#	175038
#	199801
#
# Disc length: 2922 seconds
#
# Revision: 1
# Processed by: cddbd v1.5.1PL2 Copyright (c) Steve Scherf et al.
# Submitted via: EasyCDDAExtractor 9.0.0.1
#
DISCID=820b6809
DTITLE=Ozzy Osbourne - Desert Sky Pavillion Phoenix 13-04-96 Disc 2 Remaster
DYEAR=1996
DGENRE=Hard Rock
TTITLE0=Sabbath Bloody Sabbath
TTITLE1=Iron Man
TTITLE2=Sweet Leaf
TTITLE3=Children Of The Grave
TTITLE4=Mr Crowley
TTITLE5=War Pigs
TTITLE6=Crazy Train
TTITLE7=Mama I'm Coming Home
TTITLE8=Bark At The Moon
EXTD=
EXTT0=
EXTT1=
EXTT2=
EXTT3=
EXTT4=
EXTT5=
EXTT6=
EXTT7=
EXTT8=
PLAYORDER=
